<?xml version="1.0" standalone="no"?>
<!DOCTYPE svg PUBLIC "-//W3C//DTD SVG 20010904//EN"
 "http://www.w3.org/TR/2001/REC-SVG-20010904/DTD/svg10.dtd">
<svg version="1.0" xmlns="http://www.w3.org/2000/svg"
 width="338.000000pt" height="70.000000pt" viewBox="0 0 338.000000 70.000000"
 preserveAspectRatio="xMidYMid meet">

<g transform="translate(0.000000,70.000000) scale(0.100000,-0.100000)"
fill="#000000" stroke="none">
<path d="M156 653 c4 -16 9 -31 11 -35 2 -5 59 -8 125 -8 121 0 198 13 198 35
0 30 -26 35 -182 35 l-158 0 6 -27z"/>
<path d="M606 665 c-17 -18 -21 -38 -35 -180 -6 -59 -7 -103 -1 -109 5 -5 21
1 38 15 27 22 30 31 39 123 7 67 7 109 0 132 -12 38 -19 41 -41 19z"/>
<path d="M660 671 c0 -5 4 -21 10 -35 9 -26 11 -26 116 -26 148 0 209 21 172
58 -15 15 -298 17 -298 3z"/>
<path d="M1086 661 c-13 -14 -21 -55 -32 -152 -7 -74 -10 -137 -5 -142 4 -4
22 3 39 18 27 23 31 33 37 103 4 42 9 86 11 96 4 23 -16 96 -26 96 -4 0 -15
-9 -24 -19z"/>
<path d="M1596 653 c4 -16 9 -31 11 -35 2 -5 59 -8 125 -8 121 0 198 13 198
35 0 30 -26 35 -182 35 l-158 0 6 -27z"/>
<path d="M2046 665 c-17 -18 -21 -38 -35 -180 -6 -59 -7 -103 -1 -109 5 -5 21
1 38 15 27 22 30 31 39 123 7 67 7 109 0 132 -12 38 -19 41 -41 19z"/>
<path d="M2100 671 c0 -5 4 -21 10 -35 9 -26 11 -26 116 -26 148 0 209 21 172
58 -15 15 -298 17 -298 3z"/>
<path d="M2526 661 c-13 -14 -21 -55 -32 -152 -7 -74 -10 -137 -5 -142 4 -4
22 3 39 18 27 23 31 33 37 103 4 42 9 86 11 96 4 23 -16 96 -26 96 -4 0 -15
-9 -24 -19z"/>
<path d="M3006 665 c-17 -18 -21 -38 -35 -180 -6 -59 -7 -103 -1 -109 5 -5 21
1 38 15 27 22 30 31 39 123 7 67 7 109 0 132 -12 38 -19 41 -41 19z"/>
<path d="M3060 671 c0 -5 4 -21 10 -35 9 -26 11 -26 116 -26 148 0 209 21 172
58 -15 15 -298 17 -298 3z"/>
<path d="M449 603 l-37 -14 -7 -84 c-6 -77 -5 -86 16 -114 18 -25 25 -29 35
-19 11 11 40 236 32 243 -2 2 -19 -4 -39 -12z"/>
<path d="M1889 603 l-37 -14 -7 -84 c-6 -77 -5 -86 16 -114 18 -25 25 -29 35
-19 11 11 40 236 32 243 -2 2 -19 -4 -39 -12z"/>
<path d="M135 360 c-14 -16 -15 -22 -5 -35 18 -21 247 -22 276 -1 15 12 17 18
8 33 -10 16 -28 18 -136 21 -114 2 -126 1 -143 -18z"/>
<path d="M615 360 c-14 -16 -15 -22 -5 -35 18 -21 247 -22 276 -1 15 12 17 18
8 33 -10 16 -28 18 -136 21 -114 2 -126 1 -143 -18z"/>
<path d="M1575 360 c-14 -16 -15 -22 -5 -35 18 -21 247 -22 276 -1 15 12 17
18 8 33 -10 16 -28 18 -136 21 -114 2 -126 1 -143 -18z"/>
<path d="M2055 360 c-14 -16 -15 -22 -5 -35 18 -21 247 -22 276 -1 15 12 17
18 8 33 -10 16 -28 18 -136 21 -114 2 -126 1 -143 -18z"/>
<path d="M3015 360 c-14 -16 -15 -22 -5 -35 18 -21 247 -22 276 -1 15 12 17
18 8 33 -10 16 -28 18 -136 21 -114 2 -126 1 -143 -18z"/>
<path d="M1373 308 c-28 -30 -32 -41 -39 -115 l-7 -83 34 -14 c19 -8 35 -14
36 -13 7 8 23 241 16 248 -5 5 -22 -5 -40 -23z"/>
<path d="M2813 308 c-28 -30 -32 -41 -39 -115 l-7 -83 34 -14 c19 -8 35 -14
36 -13 7 8 23 241 16 248 -5 5 -22 -5 -40 -23z"/>
<path d="M76 308 c-3 -13 -10 -73 -16 -135 -9 -83 -9 -117 0 -133 29 -54 67
23 76 153 6 83 5 96 -12 115 -24 28 -42 28 -48 0z"/>
<path d="M556 308 c-3 -13 -10 -73 -16 -135 -9 -83 -9 -117 0 -133 29 -54 67
23 76 154 6 85 5 99 -11 116 -24 26 -43 25 -49 -2z"/>
<path d="M1036 308 c-3 -13 -10 -73 -16 -135 -9 -83 -9 -117 0 -133 29 -54 67
23 76 154 6 85 5 99 -11 116 -24 26 -43 25 -49 -2z"/>
<path d="M1516 308 c-3 -13 -10 -73 -16 -135 -9 -83 -9 -117 0 -133 29 -54 67
23 76 153 6 83 5 96 -12 115 -24 28 -42 28 -48 0z"/>
<path d="M1996 308 c-3 -13 -10 -73 -16 -135 -9 -83 -9 -117 0 -133 29 -54 67
23 76 154 6 85 5 99 -11 116 -24 26 -43 25 -49 -2z"/>
<path d="M2476 308 c-3 -13 -10 -73 -16 -135 -9 -83 -9 -117 0 -133 29 -54 67
23 76 154 6 85 5 99 -11 116 -24 26 -43 25 -49 -2z"/>
<path d="M2956 308 c-3 -13 -10 -73 -16 -135 -9 -83 -9 -117 0 -133 29 -54 67
23 76 154 6 85 5 99 -11 116 -24 26 -43 25 -49 -2z"/>
<path d="M127 55 l-17 -35 144 0 c126 0 145 2 159 18 10 10 17 21 17 24 0 16
-75 28 -175 28 l-111 0 -17 -35z"/>
<path d="M607 55 l-17 -35 144 0 c126 0 145 2 159 18 10 10 17 21 17 24 0 16
-75 28 -175 28 l-111 0 -17 -35z"/>
<path d="M1087 55 l-17 -35 144 0 c126 0 145 2 159 18 10 10 17 21 17 24 0 16
-75 28 -175 28 l-111 0 -17 -35z"/>
<path d="M1567 55 l-17 -35 144 0 c126 0 145 2 159 18 10 10 17 21 17 24 0 16
-75 28 -175 28 l-111 0 -17 -35z"/>
<path d="M2047 55 l-17 -35 144 0 c126 0 145 2 159 18 10 10 17 21 17 24 0 16
-75 28 -175 28 l-111 0 -17 -35z"/>
<path d="M2527 55 l-17 -35 144 0 c126 0 145 2 159 18 10 10 17 21 17 24 0 16
-75 28 -175 28 l-111 0 -17 -35z"/>
<path d="M3007 55 l-17 -35 144 0 c126 0 145 2 159 18 10 10 17 21 17 24 0 16
-75 28 -175 28 l-111 0 -17 -35z"/>
</g>
</svg>
